<?xml version="1.0" encoding="utf-8"?>
<!-- Generator: Adobe Illustrator 22.1.0, SVG Export Plug-In . SVG Version: 6.00 Build 0)  -->
<svg version="1.1"
	 id="iconpsd-5-1_xA0_Image_1_" inkscape:version="0.92.2 5c3e80d, 2017-08-06" sodipodi:docname="iconpsd-5-1-mask1.svg" xmlns:cc="http://creativecommons.org/ns#" xmlns:dc="http://purl.org/dc/elements/1.1/" xmlns:inkscape="http://www.inkscape.org/namespaces/inkscape" xmlns:rdf="http://www.w3.org/1999/02/22-rdf-syntax-ns#" xmlns:sodipodi="http://sodipodi.sourceforge.net/DTD/sodipodi-0.dtd" xmlns:svg="http://www.w3.org/2000/svg"
	 xmlns="http://www.w3.org/2000/svg" xmlns:xlink="http://www.w3.org/1999/xlink" x="0px" y="0px" viewBox="0 0 512 512"
	 style="enable-background:new 0 0 512 512;" xml:space="preserve">
<style type="text/css">
	.st0{fill:#EC1C24;}
	.st1{fill:#EF454C;}
	.st2{fill:#FEFEFE;}
</style>
<sodipodi:namedview  bordercolor="#666666" borderopacity="1" gridtolerance="10" guidetolerance="10" id="namedview83" inkscape:current-layer="iconpsd-5-1_xA0_Image_1_" inkscape:cx="385.08031" inkscape:cy="294.43316" inkscape:pageopacity="0" inkscape:pageshadow="2" inkscape:window-height="855" inkscape:window-maximized="1" inkscape:window-width="1440" inkscape:window-x="0" inkscape:window-y="1" inkscape:zoom="1.3037281" objecttolerance="10" pagecolor="#ffff00" showgrid="false">
	</sodipodi:namedview>
<g id="g80">
	<g id="g78">
		<path id="path6" class="st0" d="M323,462.9c-46.8,0-93.6,0.1-140.5,0.1c-17.5,0-35,0.2-52.5-0.1c-17.5-0.3-33.3-5.8-47-16.9
			c0.9-2,3-2.6,4.6-3.7c13.1-9,24.7-19.7,33.9-32.6c25.1-35.2,33-74.1,23-116.1c-7.6-31.9-25.1-57.9-51.4-77.8
			c-12.4-9.4-25.8-17-41-20.9c0.1-24.6-2-49.2,1-73.7C56.1,98.1,68.2,79.8,88,67c3.6,13.7,9.2,26.5,18.7,37.1
			c21.5,23.9,48.5,33.1,80,27.9c20.8-3.5,37.7-14.2,50.9-30.7c11.1-14,16.6-30.1,18.6-47.6c6.3-0.1,12.6-0.2,19-0.3
			c35,0,70-0.1,104.9,0c38.9,0.1,70.4,24.7,79.4,61.8c1.5,6,2.1,12.2,2.2,18.3c0.1,32.8,0,65.6,0,98.5c0,0.7-0.1,1.3-0.2,2
			c-6.1-3.3-10-9-15.2-13.4c-22.6-19-48.7-29.7-77.9-32.2c-29.1-2.5-56.8,3.7-82.2,18.7c-23.3,13.8-41.3,32.7-53.5,56.8
			c-11.4,22.5-16.4,46.3-14.8,71.6c1.1,18,5.2,35.1,13,51.2c8.4,17.4,19.5,32.7,34.4,45.3c11,9.3,22.7,17.3,36,22.8
			C308.4,457.5,315.7,460.1,323,462.9z"/>
		<path id="path8" class="st1" d="M323,462.9c-7.2-2.7-14.6-5.4-21.7-8.3c-13.4-5.4-25.1-13.4-36-22.8c-14.8-12.6-26-27.9-34.4-45.3
			c-7.8-16.2-11.8-33.3-13-51.2c-1.6-25.3,3.4-49.1,14.8-71.6c12.3-24.2,30.2-43.1,53.5-56.8c25.4-15,53.1-21.2,82.2-18.7
			s55.2,13.2,77.9,32.2c5.2,4.4,9.1,10.1,15.2,13.4c0.1,2.3,0.2,4.6,0.2,7c0,46.8,0,93.6,0,140.5c0,23.7-8.4,43.9-25.6,60.3
			c-1.3,1.2-2.8,2.3-4.2,3.4c-1.9,0-3.5,0.9-5,1.8c-6.9,4.2-14.3,7.5-21.8,10.5c-3.1,1.2-7,0.8-9,4.4c-2.9,0.4-5.9,1.2-8.8,1.2
			C365.8,462.9,344.4,462.9,323,462.9z"/>
		<path id="path10" class="st1" d="M52.2,195c15.2,3.9,28.6,11.5,41,20.9c26.2,19.8,43.8,45.8,51.4,77.8c10,42,2.1,80.9-23,116.1
			c-9.2,12.9-20.8,23.6-33.9,32.6c-1.6,1.1-3.7,1.7-4.6,3.7c-19.3-15-30.4-34.9-30.7-59.1c-0.7-63.6-0.3-127.3-0.3-191
			C52,195.6,52.1,195.3,52.2,195z"/>
		<path id="path12" class="st1" d="M256.1,53.6c-2,17.5-7.5,33.6-18.6,47.6c-13.2,16.5-30.1,27.2-50.9,30.7
			c-31.5,5.2-58.5-4-80-27.9c-9.4-10.6-15-23.4-18.6-37c12.7-9.2,27.1-13.4,42.5-13.5c41.4-0.3,82.8-0.1,124.2-0.1
			C255.1,53.3,255.6,53.5,256.1,53.6z"/>
		<path id="path14" class="st0" d="M396.1,461.6c2-3.5,5.9-3.1,9-4.4c7.5-3,14.9-6.3,21.8-10.5c1.6-0.9,3.1-1.8,5-1.8
			C421.5,453.9,409.4,459.2,396.1,461.6z"/>
		<path id="path16" class="st2" d="M460,116.2c-2.8,0-4.7,0-6.7,0c-57.2,0-114.3,0-171.5,0c-45.7,0-91.3,0.1-137,0.1
			c-10.1,0-13.7,3.6-13.6,13.9c0,85,0.1,170,0.2,255c0,10.6,3,13.6,13.8,13.6c102.7,0,205.3-0.1,308-0.2c2.1,0,4.3,0,7.8,0
			c-2.5,6.8-4.6,12.8-6.9,18.7c-0.4,0.9-2,1.6-3.1,1.9c-1.4,0.3-3,0.1-4.5,0.1c-104-0.1-208-0.1-312-0.2c-14.9,0-21.7-6.8-21.7-21.6
			c0-92.5,0.2-185,0-277.5c0-13.5,8.6-21.7,21.9-21.7c104.5,0.4,209,0.3,313.5,0.2c4.9,0,7.3,1.5,8.5,6
			C457.4,108.4,458.7,111.9,460,116.2z"/>
		<path id="path22" inkscape:connector-curvature="0" sodipodi:nodetypes="scscsccs" class="st2" d="M308.1,338.8
			c2.9,2.6,3,5.7-0.1,9.4c-5.5,6.2-11.6,11.9-17.5,17.8c-3.1,3.1-6.1,6.2-9.2,9.1c-2.8,2.6-6,3.2-8.9,0.4c-2.9-2.8-2.5-6.1,0.2-8.9
			c9-9.1,18.1-18.2,27.2-27.2C303.1,336.2,305.5,336.5,308.1,338.8L308.1,338.8z"/>
		<path id="path62" class="st2" d="M276.4,174.9c-1.7-1.3-4.3-2.3-4.6-3.8c-0.5-2.2-0.1-5.5,1.3-7.1c4.7-5.4,9.9-10.2,15-15.3
			c3.9-3.9,7.7-7.8,11.6-11.6c2.7-2.7,5.8-3.5,8.8-0.6c2.9,2.9,2.2,6-0.5,8.8c-8.9,8.9-17.8,17.9-26.8,26.7
			C280,173.1,278.4,173.7,276.4,174.9z"/>
		<path id="path3798" inkscape:connector-curvature="0" sodipodi:nodetypes="scscsccs" class="st2" d="M254.2,340
			c2.9,2.6,3,5.7-0.1,9.4c-5.5,6.2-11.6,11.9-17.5,17.8c-3.1,3.1-6.1,6.2-9.2,9.1c-2.8,2.6-6,3.2-8.9,0.4c-2.9-2.8-2.5-6.1,0.2-8.9
			c9-9.1,18.1-18.2,27.2-27.2C249.2,337.4,251.6,337.8,254.2,340L254.2,340z"/>
		<path id="path3800" inkscape:connector-curvature="0" sodipodi:nodetypes="scscsccs" class="st2" d="M201.6,340.8
			c2.9,2.6,3,5.7-0.1,9.4c-5.5,6.2-11.6,11.9-17.5,17.8c-3.1,3.1-6.1,6.2-9.2,9.1c-2.8,2.6-6,3.2-8.9,0.4c-2.9-2.8-2.5-6.1,0.2-8.9
			c9-9.1,18.1-18.2,27.2-27.2C196.6,338.2,199,338.6,201.6,340.8L201.6,340.8z"/>
		<path id="path3804" inkscape:connector-curvature="0" sodipodi:nodetypes="scscsccs" class="st2" d="M361.5,338.8
			c2.9,2.6,3,5.7-0.1,9.4c-5.5,6.2-11.6,11.9-17.5,17.8c-3.1,3.1-6.1,6.2-9.2,9.1c-2.8,2.6-6,3.2-8.9,0.4c-2.9-2.8-2.5-6.1,0.2-8.9
			c9-9.1,18.1-18.2,27.2-27.2C356.5,336.2,358.9,336.5,361.5,338.8L361.5,338.8z"/>
		<path id="path3806" inkscape:connector-curvature="0" sodipodi:nodetypes="scscsccs" class="st2" d="M414.9,338.8
			c2.9,2.6,3,5.7-0.1,9.4c-5.5,6.2-11.6,11.9-17.5,17.8c-3.1,3.1-6.1,6.2-9.2,9.1c-2.8,2.6-6,3.2-8.9,0.4c-2.9-2.8-2.5-6.1,0.2-8.9
			c9-9.1,18.1-18.2,27.2-27.2C410,336.2,412.3,336.5,414.9,338.8L414.9,338.8z"/>
		<path id="path3808" inkscape:connector-curvature="0" sodipodi:nodetypes="cscscccc" class="st2" d="M461.6,355
			c-3.5,3.6-7.3,7.4-10.9,11c-3.1,3.1-6.1,6.2-9.2,9.1c-2.8,2.6-6,3.2-8.9,0.4c-2.9-2.8-2.5-6.1,0.2-8.9c9-9.1,18.1-18.2,27.2-27.2
			c0.6-0.6,1.1-1,1.6-1.4C461.7,344.8,461.7,344.8,461.6,355L461.6,355z"/>
		<path id="path3810" inkscape:connector-curvature="0" sodipodi:nodetypes="scscsccs" class="st2" d="M308.1,284
			c2.9,2.6,3,5.7-0.1,9.4c-5.5,6.2-11.6,11.9-17.5,17.8c-3.1,3.1-6.1,6.2-9.2,9.1c-2.8,2.6-6,3.2-8.9,0.4c-2.9-2.8-2.5-6.1,0.2-8.9
			c9-9.1,18.1-18.2,27.2-27.2C303.1,281.3,305.5,281.7,308.1,284L308.1,284z"/>
		<path id="path3812" inkscape:connector-curvature="0" sodipodi:nodetypes="scscsccs" class="st2" d="M254.2,285.2
			c2.9,2.6,3,5.7-0.1,9.4c-5.5,6.2-11.6,11.9-17.5,17.8c-3.1,3.1-6.1,6.2-9.2,9.1c-2.8,2.6-6,3.2-8.9,0.4c-2.9-2.8-2.5-6.1,0.2-8.9
			c9-9.1,18.1-18.2,27.2-27.2C249.2,282.5,251.6,282.9,254.2,285.2L254.2,285.2z"/>
		<path id="path3814" inkscape:connector-curvature="0" sodipodi:nodetypes="scscsccs" class="st2" d="M201.6,286
			c2.9,2.6,3,5.7-0.1,9.4c-5.5,6.2-11.6,11.9-17.5,17.8c-3.1,3.1-6.1,6.2-9.2,9.1c-2.8,2.6-6,3.2-8.9,0.4c-2.9-2.8-2.5-6.1,0.2-8.9
			c9-9.1,18.1-18.2,27.2-27.2C196.6,283.3,199,283.7,201.6,286L201.6,286z"/>
		<path id="path3816" inkscape:connector-curvature="0" sodipodi:nodetypes="scscsccs" class="st2" d="M361.5,284
			c2.9,2.6,3,5.7-0.1,9.4c-5.5,6.2-11.6,11.9-17.5,17.8c-3.1,3.1-6.1,6.2-9.2,9.1c-2.8,2.6-6,3.2-8.9,0.4c-2.9-2.8-2.5-6.1,0.2-8.9
			c9-9.1,18.1-18.2,27.2-27.2C356.5,281.3,358.9,281.7,361.5,284L361.5,284z"/>
		<path id="path3818" inkscape:connector-curvature="0" sodipodi:nodetypes="scscsccs" class="st2" d="M414.9,284
			c2.9,2.6,3,5.7-0.1,9.4c-5.5,6.2-11.6,11.9-17.5,17.8c-3.1,3.1-6.1,6.2-9.2,9.1c-2.8,2.6-6,3.2-8.9,0.4c-2.9-2.8-2.5-6.1,0.2-8.9
			c9-9.1,18.1-18.2,27.2-27.2C410,281.3,412.3,281.7,414.9,284L414.9,284z"/>
		<path id="path3820" inkscape:connector-curvature="0" sodipodi:nodetypes="cscscccc" class="st2" d="M461.6,300.2
			c-3.5,3.6-7.3,7.4-10.9,11c-3.1,3.1-6.1,6.2-9.2,9.1c-2.8,2.6-6,3.2-8.9,0.4c-2.9-2.8-2.5-6.1,0.2-8.9c9-9.1,18.1-18.2,27.2-27.2
			c0.6-0.6,1.1-1,1.6-1.4C461.7,290,461.7,290,461.6,300.2L461.6,300.2z"/>
		<path id="path3822" inkscape:connector-curvature="0" sodipodi:nodetypes="scscsccs" class="st2" d="M308.1,235.6
			c2.9,2.6,3,5.7-0.1,9.4c-5.5,6.2-11.6,11.9-17.5,17.8c-3.1,3.1-6.1,6.2-9.2,9.1c-2.8,2.6-6,3.2-8.9,0.4c-2.9-2.8-2.5-6.1,0.2-8.9
			c9-9.1,18.1-18.2,27.2-27.2C303.1,233,305.5,233.4,308.1,235.6L308.1,235.6z"/>
		<path id="path3824" inkscape:connector-curvature="0" sodipodi:nodetypes="scscsccs" class="st2" d="M254.2,236.9
			c2.9,2.6,3,5.7-0.1,9.4c-5.5,6.2-11.6,11.9-17.5,17.8c-3.1,3.1-6.1,6.2-9.2,9.1c-2.8,2.6-6,3.2-8.9,0.4c-2.9-2.8-2.5-6.1,0.2-8.9
			c9-9.1,18.1-18.2,27.2-27.2C249.2,234.2,251.6,234.6,254.2,236.9L254.2,236.9z"/>
		<path id="path3826" inkscape:connector-curvature="0" sodipodi:nodetypes="scscsccs" class="st2" d="M201.6,237.7
			c2.9,2.6,3,5.7-0.1,9.4c-5.5,6.2-11.6,11.9-17.5,17.8c-3.1,3.1-6.1,6.2-9.2,9.1c-2.8,2.6-6,3.2-8.9,0.4c-2.9-2.8-2.5-6.1,0.2-8.9
			c9-9.1,18.1-18.2,27.2-27.2C196.6,235,199,235.4,201.6,237.7L201.6,237.7z"/>
		<path id="path3828" inkscape:connector-curvature="0" sodipodi:nodetypes="scscsccs" class="st2" d="M361.5,235.6
			c2.9,2.6,3,5.7-0.1,9.4c-5.5,6.2-11.6,11.9-17.5,17.8c-3.1,3.1-6.1,6.2-9.2,9.1c-2.8,2.6-6,3.2-8.9,0.4c-2.9-2.8-2.5-6.1,0.2-8.9
			c9-9.1,18.1-18.2,27.2-27.2C356.5,233,358.9,233.4,361.5,235.6L361.5,235.6z"/>
		<path id="path3830" inkscape:connector-curvature="0" sodipodi:nodetypes="scscsccs" class="st2" d="M414.9,235.6
			c2.9,2.6,3,5.7-0.1,9.4c-5.5,6.2-11.6,11.9-17.5,17.8c-3.1,3.1-6.1,6.2-9.2,9.1c-2.8,2.6-6,3.2-8.9,0.4c-2.9-2.8-2.5-6.1,0.2-8.9
			c9-9.1,18.1-18.2,27.2-27.2C410,233,412.3,233.4,414.9,235.6L414.9,235.6z"/>
		<path id="path3832" inkscape:connector-curvature="0" sodipodi:nodetypes="cscscccc" class="st2" d="M461.6,251.9
			c-3.5,3.6-7.3,7.4-10.9,11c-3.1,3.1-6.1,6.2-9.2,9.1c-2.8,2.6-6,3.2-8.9,0.4c-2.9-2.8-2.5-6.1,0.2-8.9c9-9.1,18.1-18.2,27.2-27.2
			c0.6-0.6,1.1-1,1.6-1.4C461.7,241.7,461.7,241.7,461.6,251.9L461.6,251.9z"/>
		<path id="path3834" inkscape:connector-curvature="0" sodipodi:nodetypes="scscsccs" class="st2" d="M308.1,185
			c2.9,2.6,3,5.7-0.1,9.4c-5.5,6.2-11.6,11.9-17.5,17.8c-3.1,3.1-6.1,6.2-9.2,9.1c-2.8,2.6-6,3.2-8.9,0.4s-2.5-6.1,0.2-8.9
			c9-9.1,18.1-18.2,27.2-27.2C303.1,182.4,305.5,182.8,308.1,185L308.1,185z"/>
		<path id="path3836" inkscape:connector-curvature="0" sodipodi:nodetypes="scscsccs" class="st2" d="M254.2,186.2
			c2.9,2.6,3,5.7-0.1,9.4c-5.5,6.2-11.6,11.9-17.5,17.8c-3.1,3.1-6.1,6.2-9.2,9.1c-2.8,2.6-6,3.2-8.9,0.4s-2.5-6.1,0.2-8.9
			c9-9.1,18.1-18.2,27.2-27.2C249.2,183.6,251.6,184,254.2,186.2L254.2,186.2z"/>
		<path id="path3838" inkscape:connector-curvature="0" sodipodi:nodetypes="scscsccs" class="st2" d="M201.6,187
			c2.9,2.6,3,5.7-0.1,9.4c-5.5,6.2-11.6,11.9-17.5,17.8c-3.1,3.1-6.1,6.2-9.2,9.1c-2.8,2.6-6,3.2-8.9,0.4s-2.5-6.1,0.2-8.9
			c9-9.1,18.1-18.2,27.2-27.2C196.6,184.4,199,184.8,201.6,187L201.6,187z"/>
		<path id="path3840" inkscape:connector-curvature="0" sodipodi:nodetypes="scscsccs" class="st2" d="M361.5,185
			c2.9,2.6,3,5.7-0.1,9.4c-5.5,6.2-11.6,11.9-17.5,17.8c-3.1,3.1-6.1,6.2-9.2,9.1c-2.8,2.6-6,3.2-8.9,0.4s-2.5-6.1,0.2-8.9
			c9-9.1,18.1-18.2,27.2-27.2C356.5,182.4,358.9,182.8,361.5,185L361.5,185z"/>
		<path id="path3842" inkscape:connector-curvature="0" sodipodi:nodetypes="scscsccs" class="st2" d="M414.9,185
			c2.9,2.6,3,5.7-0.1,9.4c-5.5,6.2-11.6,11.9-17.5,17.8c-3.1,3.1-6.1,6.2-9.2,9.1c-2.8,2.6-6,3.2-8.9,0.4s-2.5-6.1,0.2-8.9
			c9-9.1,18.1-18.2,27.2-27.2C410,182.4,412.3,182.8,414.9,185L414.9,185z"/>
		<path id="path3844" inkscape:connector-curvature="0" sodipodi:nodetypes="cscscccc" class="st2" d="M461.6,201.2
			c-3.5,3.6-7.3,7.4-10.9,11c-3.1,3.1-6.1,6.2-9.2,9.1c-2.8,2.6-6,3.2-8.9,0.4s-2.5-6.1,0.2-8.9c9-9.1,18.1-18.2,27.2-27.2
			c0.6-0.6,1.1-1,1.6-1.4C461.7,191.1,461.7,191,461.6,201.2L461.6,201.2z"/>
		<path id="path3846" inkscape:connector-curvature="0" sodipodi:nodetypes="scscsccs" class="st2" d="M308.1,136.3
			c2.9,2.6,3,5.7-0.1,9.4c-5.5,6.2-11.6,11.9-17.5,17.8c-3.1,3.1-6.1,6.2-9.2,9.1c-2.8,2.6-6,3.2-8.9,0.4s-2.5-6.1,0.2-8.9
			c9-9.1,18.1-18.2,27.2-27.2C303.1,133.7,305.5,134,308.1,136.3L308.1,136.3z"/>
		<path id="path3848" inkscape:connector-curvature="0" sodipodi:nodetypes="scscsccs" class="st2" d="M254.2,137.5
			c2.9,2.6,3,5.7-0.1,9.4c-5.5,6.2-11.6,11.9-17.5,17.8c-3.1,3.1-6.1,6.2-9.2,9.1c-2.8,2.6-6,3.2-8.9,0.4s-2.5-6.1,0.2-8.9
			c9-9.1,18.1-18.2,27.2-27.2C249.2,134.9,251.6,135.3,254.2,137.5L254.2,137.5z"/>
		<path id="path3850" inkscape:connector-curvature="0" sodipodi:nodetypes="scscsccs" class="st2" d="M201.6,138.3
			c2.9,2.6,3,5.7-0.1,9.4c-5.5,6.2-11.6,11.9-17.5,17.8c-3.1,3.1-6.1,6.2-9.2,9.1c-2.8,2.6-6,3.2-8.9,0.4s-2.5-6.1,0.2-8.9
			c9-9.1,18.1-18.2,27.2-27.2C196.6,135.7,199,136.1,201.6,138.3L201.6,138.3z"/>
		<path id="path3852" inkscape:connector-curvature="0" sodipodi:nodetypes="scscsccs" class="st2" d="M361.5,136.3
			c2.9,2.6,3,5.7-0.1,9.4c-5.5,6.2-11.6,11.9-17.5,17.8c-3.1,3.1-6.1,6.2-9.2,9.1c-2.8,2.6-6,3.2-8.9,0.4s-2.5-6.1,0.2-8.9
			c9-9.1,18.1-18.2,27.2-27.2C356.5,133.7,358.9,134,361.5,136.3L361.5,136.3z"/>
		<path id="path3854" inkscape:connector-curvature="0" sodipodi:nodetypes="scscsccs" class="st2" d="M414.9,136.3
			c2.9,2.6,3,5.7-0.1,9.4c-5.5,6.2-11.6,11.9-17.5,17.8c-3.1,3.1-6.1,6.2-9.2,9.1c-2.8,2.6-6,3.2-8.9,0.4s-2.5-6.1,0.2-8.9
			c9-9.1,18.1-18.2,27.2-27.2C410,133.7,412.3,134,414.9,136.3L414.9,136.3z"/>
		<path id="path3856" inkscape:connector-curvature="0" sodipodi:nodetypes="cscscccc" class="st2" d="M461.6,152.5
			c-3.5,3.6-7.3,7.4-10.9,11c-3.1,3.1-6.1,6.2-9.2,9.1c-2.8,2.6-6,3.2-8.9,0.4s-2.5-6.1,0.2-8.9c9-9.1,18.1-18.2,27.2-27.2
			c0.6-0.6,1.1-1,1.6-1.4C461.7,142.4,461.7,142.3,461.6,152.5L461.6,152.5z"/>
	</g>
</g>
</svg>
