<?xml version="1.0" encoding="UTF-8" standalone="no"?>
<svg xmlns="http://www.w3.org/2000/svg" xmlns:android="http://schemas.android.com/apk/res/android" height="110" width="400">
    	
    <path d="M150.5,50.5h10v10h-10z" fill="#000000"/>
    	
    <path d="M150.5,40.5h10v10h-10z" fill="#000000"/>
    	
    <path d="M150.5,60.5h10v10h-10z" fill="#000000"/>
    	
    <path d="M150.5,70.5h10v10h-10z" fill="#000000"/>
    	
    <path d="M150.5,30.5h10v10h-10z" fill="#000000"/>
    	
    <path d="M150.5,90.5h10v10h-10z" fill="#000000"/>
    	
    <path d="M150.5,100.5h10v10h-10z" fill="#000000"/>
    	
    <path d="M150.5,20.5h10v10h-10z" fill="#000000"/>
    	
    <path d="M150.5,80.5h10v10h-10z" fill="#000000"/>
    	
    <path d="M150.5,10.5h10v10h-10z" fill="#000000"/>
    	
    <path d="M150.5,0.5h10v10h-10z" fill="#000000"/>
    	
    <path d="M140.5,0.5h10v10h-10z" fill="#000000"/>
    	
    <path d="M140.5,20.5h10v10h-10z" fill="#000000"/>
    	
    <path d="M140.5,60.5h10v10h-10z" fill="#000000"/>
    	
    <path d="M140.5,90.5h10v10h-10z" fill="#000000"/>
    	
    <path d="M140.5,10.5h10v10h-10z" fill="#000000"/>
    	
    <path d="M140.5,70.5h10v10h-10z" fill="#000000"/>
    	
    <path d="M140.5,100.5h10v10h-10z" fill="#000000"/>
    	
    <path d="M140.5,30.5h10v10h-10z" fill="#000000"/>
    	
    <path d="M140.5,80.5h10v10h-10z" fill="#000000"/>
    	
    <path d="M140.5,50.5h10v10h-10z" fill="#000000"/>
    	
    <path d="M140.5,40.5h10v10h-10z" fill="#000000"/>
    	
    <path d="M160.5,50.5h10v10h-10z" fill="#000000"/>
    	
    <path d="M180.5,50.5h10v10h-10z" fill="#000000"/>
    	
    <path d="M180.5,40.5h10v10h-10z" fill="#000000"/>
    	
    <path d="M180.5,60.5h10v10h-10z" fill="#000000"/>
    	
    <path d="M170.5,50.5h10v10h-10z" fill="#000000"/>
    	
    <path d="M170.5,60.5h10v10h-10z" fill="#000000"/>
    	
    <path d="M170.5,40.5h10v10h-10z" fill="#000000"/>
    	
    <path d="M190.5,60.5h10v10h-10z" fill="#000000"/>
    	
    <path d="M200.5,30.5h10v10h-10z" fill="#000000"/>
    	
    <path d="M200.5,70.5h10v10h-10z" fill="#000000"/>
    	
    <path d="M200.5,60.5h10v10h-10z" fill="#000000"/>
    	
    <path d="M190.5,30.5h10v10h-10z" fill="#000000"/>
    	
    <path d="M190.5,40.5h10v10h-10z" fill="#000000"/>
    	
    <path d="M190.5,70.5h10v10h-10z" fill="#000000"/>
    	
    <path d="M200.5,40.5h10v10h-10z" fill="#000000"/>
    	
    <path d="M190.5,50.5h10v10h-10z" fill="#000000"/>
    	
    <path d="M200.5,50.5h10v10h-10z" fill="#000000"/>
    	
    <path d="M220.5,50.5h10v10h-10z" fill="#000000"/>
    	
    <path d="M220.5,40.5h10v10h-10z" fill="#000000"/>
    	
    <path d="M220.5,60.5h10v10h-10z" fill="#000000"/>
    	
    <path d="M210.5,50.5h10v10h-10z" fill="#000000"/>
    	
    <path d="M210.5,20.5h10v10h-10z" fill="#000000"/>
    	
    <path d="M210.5,70.5h10v10h-10z" fill="#000000"/>
    	
    <path d="M220.5,80.5h10v10h-10z" fill="#000000"/>
    	
    <path d="M220.5,20.5h10v10h-10z" fill="#000000"/>
    	
    <path d="M210.5,30.5h10v10h-10z" fill="#000000"/>
    	
    <path d="M220.5,30.5h10v10h-10z" fill="#000000"/>
    	
    <path d="M220.5,70.5h10v10h-10z" fill="#000000"/>
    	
    <path d="M210.5,40.5h10v10h-10z" fill="#000000"/>
    	
    <path d="M210.5,60.5h10v10h-10z" fill="#000000"/>
    	
    <path d="M210.5,80.5h10v10h-10z" fill="#000000"/>
    	
    <path d="M250.5,100.5h10v10h-10z" fill="#000000"/>
    	
    <path d="M250.5,90.5h10v10h-10z" fill="#000000"/>
    	
    <path d="M250.5,80.5h10v10h-10z" fill="#000000"/>
    	
    <path d="M250.5,70.5h10v10h-10z" fill="#000000"/>
    	
    <path d="M250.5,60.5h10v10h-10z" fill="#000000"/>
    	
    <path d="M250.5,50.5h10v10h-10z" fill="#000000"/>
    	
    <path d="M250.5,40.5h10v10h-10z" fill="#000000"/>
    	
    <path d="M250.5,30.5h10v10h-10z" fill="#000000"/>
    	
    <path d="M250.5,20.5h10v10h-10z" fill="#000000"/>
    	
    <path d="M250.5,10.5h10v10h-10z" fill="#000000"/>
    	
    <path d="M250.5,0.5h10v10h-10z" fill="#000000"/>
    	
    <path d="M240.5,90.5h10v10h-10z" fill="#000000"/>
    	
    <path d="M240.5,80.5h10v10h-10z" fill="#000000"/>
    	
    <path d="M240.5,70.5h10v10h-10z" fill="#000000"/>
    	
    <path d="M240.5,60.5h10v10h-10z" fill="#000000"/>
    	
    <path d="M240.5,50.5h10v10h-10z" fill="#000000"/>
    	
    <path d="M240.5,40.5h10v10h-10z" fill="#000000"/>
    	
    <path d="M240.5,30.5h10v10h-10z" fill="#000000"/>
    	
    <path d="M240.5,20.5h10v10h-10z" fill="#000000"/>
    	
    <path d="M240.5,10.5h10v10h-10z" fill="#000000"/>
    	
    <path d="M230.5,90.5h10v10h-10z" fill="#000000"/>
    	
    <path d="M230.5,80.5h10v10h-10z" fill="#000000"/>
    	
    <path d="M230.5,70.5h10v10h-10z" fill="#000000"/>
    	
    <path d="M230.5,60.5h10v10h-10z" fill="#000000"/>
    	
    <path d="M230.5,50.5h10v10h-10z" fill="#000000"/>
    	
    <path d="M230.5,40.5h10v10h-10z" fill="#000000"/>
    	
    <path d="M230.5,30.5h10v10h-10z" fill="#000000"/>
    	
    <path d="M230.5,20.5h10v10h-10z" fill="#000000"/>
    	
    <path d="M230.5,10.5h10v10h-10z" fill="#000000"/>
    
</svg>
