<?xml version="1.0" encoding="UTF-8" standalone="no"?>
<svg xmlns="http://www.w3.org/2000/svg" xmlns:android="http://schemas.android.com/apk/res/android" height="110" width="400">
    	
    <path d="M260.5,80.5h10v10h-10z" fill="#000000"/>
    	
    <path d="M280.5,80.5h10v10h-10z" fill="#000000"/>
    	
    <path d="M240.5,80.5h10v10h-10z" fill="#000000"/>
    	
    <path d="M250.5,80.5h10v10h-10z" fill="#000000"/>
    	
    <path d="M270.5,80.5h10v10h-10z" fill="#000000"/>
    	
    <path d="M220.5,80.5h10v10h-10z" fill="#000000"/>
    	
    <path d="M230.5,80.5h10v10h-10z" fill="#000000"/>
    	
    <path d="M210.5,60.5h10v10h-10z" fill="#000000"/>
    	
    <path d="M250.5,60.5h10v10h-10z" fill="#000000"/>
    	
    <path d="M220.5,50.5h10v10h-10z" fill="#000000"/>
    	
    <path d="M240.5,40.5h10v10h-10z" fill="#000000"/>
    	
    <path d="M260.5,40.5h10v10h-10z" fill="#000000"/>
    	
    <path d="M270.5,60.5h10v10h-10z" fill="#000000"/>
    	
    <path d="M230.5,40.5h10v10h-10z" fill="#000000"/>
    	
    <path d="M230.5,50.5h10v10h-10z" fill="#000000"/>
    	
    <path d="M220.5,40.5h10v10h-10z" fill="#000000"/>
    	
    <path d="M270.5,50.5h10v10h-10z" fill="#000000"/>
    	
    <path d="M250.5,50.5h10v10h-10z" fill="#000000"/>
    	
    <path d="M260.5,60.5h10v10h-10z" fill="#000000"/>
    	
    <path d="M230.5,60.5h10v10h-10z" fill="#000000"/>
    	
    <path d="M260.5,50.5h10v10h-10z" fill="#000000"/>
    	
    <path d="M250.5,40.5h10v10h-10z" fill="#000000"/>
    	
    <path d="M240.5,60.5h10v10h-10z" fill="#000000"/>
    	
    <path d="M240.5,50.5h10v10h-10z" fill="#000000"/>
    	
    <path d="M280.5,60.5h10v10h-10z" fill="#000000"/>
    	
    <path d="M210.5,40.5h10v10h-10z" fill="#000000"/>
    	
    <path d="M210.5,50.5h10v10h-10z" fill="#000000"/>
    	
    <path d="M220.5,60.5h10v10h-10z" fill="#000000"/>
    	
    <path d="M270.5,70.5h10v10h-10z" fill="#000000"/>
    	
    <path d="M280.5,70.5h10v10h-10z" fill="#000000"/>
    	
    <path d="M250.5,70.5h10v10h-10z" fill="#000000"/>
    	
    <path d="M230.5,70.5h10v10h-10z" fill="#000000"/>
    	
    <path d="M260.5,70.5h10v10h-10z" fill="#000000"/>
    	
    <path d="M240.5,70.5h10v10h-10z" fill="#000000"/>
    	
    <path d="M300.5,70.5h10v10h-10z" fill="#000000"/>
    	
    <path d="M290.5,70.5h10v10h-10z" fill="#000000"/>
    	
    <path d="M300.5,60.5h10v10h-10z" fill="#000000"/>
    	
    <path d="M310.5,50.5h10v10h-10z" fill="#000000"/>
    	
    <path d="M310.5,60.5h10v10h-10z" fill="#000000"/>
    	
    <path d="M290.5,60.5h10v10h-10z" fill="#000000"/>
    	
    <path d="M280.5,50.5h10v10h-10z" fill="#000000"/>
    	
    <path d="M270.5,40.5h10v10h-10z" fill="#000000"/>
    	
    <path d="M260.5,30.5h10v10h-10z" fill="#000000"/>
    	
    <path d="M250.5,30.5h10v10h-10z" fill="#000000"/>
    	
    <path d="M240.5,30.5h10v10h-10z" fill="#000000"/>
    	
    <path d="M240.5,20.5h10v10h-10z" fill="#000000"/>
    	
    <path d="M230.5,30.5h10v10h-10z" fill="#000000"/>
    	
    <path d="M230.5,20.5h10v10h-10z" fill="#000000"/>
    	
    <path d="M220.5,70.5h10v10h-10z" fill="#000000"/>
    	
    <path d="M220.5,30.5h10v10h-10z" fill="#000000"/>
    	
    <path d="M210.5,70.5h10v10h-10z" fill="#000000"/>
    	
    <path d="M210.5,30.5h10v10h-10z" fill="#000000"/>
    	
    <path d="M200.5,70.5h10v10h-10z" fill="#000000"/>
    	
    <path d="M200.5,60.5h10v10h-10z" fill="#000000"/>
    	
    <path d="M200.5,50.5h10v10h-10z" fill="#000000"/>
    	
    <path d="M200.5,40.5h10v10h-10z" fill="#000000"/>
    	
    <path d="M190.5,60.5h10v10h-10z" fill="#000000"/>
    	
    <path d="M190.5,50.5h10v10h-10z" fill="#000000"/>
    	
    <path d="M180.5,70.5h10v10h-10z" fill="#000000"/>
    	
    <path d="M180.5,60.5h10v10h-10z" fill="#000000"/>
    	
    <path d="M180.5,50.5h10v10h-10z" fill="#000000"/>
    	
    <path d="M180.5,40.5h10v10h-10z" fill="#000000"/>
    	
    <path d="M170.5,70.5h10v10h-10z" fill="#000000"/>
    	
    <path d="M170.5,60.5h10v10h-10z" fill="#000000"/>
    	
    <path d="M170.5,50.5h10v10h-10z" fill="#000000"/>
    	
    <path d="M170.5,40.5h10v10h-10z" fill="#000000"/>
    	
    <path d="M170.5,30.5h10v10h-10z" fill="#000000"/>
    	
    <path d="M160.5,80.5h10v10h-10z" fill="#000000"/>
    	
    <path d="M160.5,70.5h10v10h-10z" fill="#000000"/>
    	
    <path d="M160.5,60.5h10v10h-10z" fill="#000000"/>
    	
    <path d="M160.5,50.5h10v10h-10z" fill="#000000"/>
    	
    <path d="M160.5,40.5h10v10h-10z" fill="#000000"/>
    	
    <path d="M160.5,30.5h10v10h-10z" fill="#000000"/>
    	
    <path d="M150.5,80.5h10v10h-10z" fill="#000000"/>
    	
    <path d="M150.5,70.5h10v10h-10z" fill="#000000"/>
    	
    <path d="M150.5,60.5h10v10h-10z" fill="#000000"/>
    	
    <path d="M150.5,50.5h10v10h-10z" fill="#000000"/>
    	
    <path d="M150.5,40.5h10v10h-10z" fill="#000000"/>
    	
    <path d="M150.5,30.5h10v10h-10z" fill="#000000"/>
    	
    <path d="M150.5,20.5h10v10h-10z" fill="#000000"/>
    	
    <path d="M140.5,80.5h10v10h-10z" fill="#000000"/>
    	
    <path d="M140.5,70.5h10v10h-10z" fill="#000000"/>
    	
    <path d="M140.5,60.5h10v10h-10z" fill="#000000"/>
    	
    <path d="M140.5,50.5h10v10h-10z" fill="#000000"/>
    	
    <path d="M140.5,40.5h10v10h-10z" fill="#000000"/>
    	
    <path d="M140.5,30.5h10v10h-10z" fill="#000000"/>
    	
    <path d="M140.5,20.5h10v10h-10z" fill="#000000"/>
    	
    <path d="M130.5,80.5h10v10h-10z" fill="#000000"/>
    	
    <path d="M130.5,70.5h10v10h-10z" fill="#000000"/>
    	
    <path d="M130.5,60.5h10v10h-10z" fill="#000000"/>
    	
    <path d="M130.5,50.5h10v10h-10z" fill="#000000"/>
    	
    <path d="M130.5,40.5h10v10h-10z" fill="#000000"/>
    	
    <path d="M130.5,30.5h10v10h-10z" fill="#000000"/>
    	
    <path d="M120.5,80.5h10v10h-10z" fill="#000000"/>
    	
    <path d="M120.5,70.5h10v10h-10z" fill="#000000"/>
    	
    <path d="M120.5,60.5h10v10h-10z" fill="#000000"/>
    	
    <path d="M120.5,50.5h10v10h-10z" fill="#000000"/>
    	
    <path d="M120.5,40.5h10v10h-10z" fill="#000000"/>
    	
    <path d="M120.5,30.5h10v10h-10z" fill="#000000"/>
    	
    <path d="M110.5,80.5h10v10h-10z" fill="#000000"/>
    	
    <path d="M110.5,70.5h10v10h-10z" fill="#000000"/>
    	
    <path d="M110.5,60.5h10v10h-10z" fill="#000000"/>
    	
    <path d="M110.5,50.5h10v10h-10z" fill="#000000"/>
    	
    <path d="M110.5,40.5h10v10h-10z" fill="#000000"/>
    	
    <path d="M100.5,80.5h10v10h-10z" fill="#000000"/>
    	
    <path d="M100.5,70.5h10v10h-10z" fill="#000000"/>
    	
    <path d="M100.5,60.5h10v10h-10z" fill="#000000"/>
    	
    <path d="M100.5,50.5h10v10h-10z" fill="#000000"/>
    	
    <path d="M90.5,70.5h10v10h-10z" fill="#000000"/>
    	
    <path d="M90.5,60.5h10v10h-10z" fill="#000000"/>
    	
    <path d="M80.5,70.5h10v10h-10z" fill="#000000"/>
    	
    <path d="M80.5,60.5h10v10h-10z" fill="#000000"/>
    	
    <path d="M70.5,60.5h10v10h-10z" fill="#000000"/>
    	
    <path d="M70.5,50.5h10v10h-10z" fill="#000000"/>
    
</svg>
