<svg xmlns="http://www.w3.org/2000/svg" xmlns:android="http://schemas.android.com/apk/res/android" width="@dimen/clip_width" height="@dimen/clip_height" viewportWidth="400" viewportHeight="110">
	<path d="M319.5,40.5h10v10h-10z" fill="#000000"/>
	<path d="M319.5,50.5h10v10h-10z" fill="#000000"/>
	<path d="M299.5,90.5h10v10h-10z" fill="#000000"/>
	<path d="M309.5,90.5h10v10h-10z" fill="#000000"/>
	<path d="M319.5,80.5h10v10h-10z" fill="#000000"/>
	<path d="M319.5,90.5h10v10h-10z" fill="#000000"/>
	<path d="M319.5,70.5h10v10h-10z" fill="#000000"/>
	<path d="M329.5,70.5h10v10h-10z" fill="#000000"/>
	<path d="M339.5,70.5h10v10h-10z" fill="#000000"/>
	<path d="M339.5,60.5h10v10h-10z" fill="#000000"/>
	<path d="M349.5,40.5h10v10h-10z" fill="#000000"/>
	<path d="M349.5,60.5h10v10h-10z" fill="#000000"/>
	<path d="M349.5,50.5h10v10h-10z" fill="#000000"/>
	<path d="M339.5,30.5h10v10h-10z" fill="#000000"/>
	<path d="M349.5,30.5h10v10h-10z" fill="#000000"/>
	<path d="M329.5,20.5h10v10h-10z" fill="#000000"/>
	<path d="M319.5,20.5h10v10h-10z" fill="#000000"/>
	<path d="M289.5,30.5h10v10h-10z" fill="#000000"/>
	<path d="M289.5,50.5h10v10h-10z" fill="#000000"/>
	<path d="M289.5,40.5h10v10h-10z" fill="#000000"/>
	<path d="M289.5,70.5h10v10h-10z" fill="#000000"/>
	<path d="M289.5,60.5h10v10h-10z" fill="#000000"/>
	<path d="M289.5,90.5h10v10h-10z" fill="#000000"/>
	<path d="M289.5,80.5h10v10h-10z" fill="#000000"/>
	<path d="M279.5,80.5h10v10h-10z" fill="#000000"/>
	<path d="M249.5,80.5h10v10h-10z" fill="#000000"/>
	<path d="M259.5,90.5h10v10h-10z" fill="#000000"/>
	<path d="M269.5,90.5h10v10h-10z" fill="#000000"/>
	<path d="M279.5,90.5h10v10h-10z" fill="#000000"/>
	<path d="M249.5,90.5h10v10h-10z" fill="#000000"/>
	<path d="M259.5,60.5h10v10h-10z" fill="#000000"/>
	<path d="M259.5,50.5h10v10h-10z" fill="#000000"/>
	<path d="M259.5,30.5h10v10h-10z" fill="#000000"/>
	<path d="M259.5,40.5h10v10h-10z" fill="#000000"/>
	<path d="M249.5,20.5h10v10h-10z" fill="#000000"/>
	<path d="M259.5,20.5h10v10h-10z" fill="#000000"/>
	<path d="M269.5,20.5h10v10h-10z" fill="#000000"/>
	<path d="M289.5,20.5h10v10h-10z" fill="#000000"/>
	<path d="M279.5,20.5h10v10h-10z" fill="#000000"/>
	<path d="M299.5,20.5h10v10h-10z" fill="#000000"/>
	<path d="M309.5,20.5h10v10h-10z" fill="#000000"/>
	<path d="M219.5,20.5h10v10h-10z" fill="#000000"/>
	<path d="M239.5,40.5h10v10h-10z" fill="#000000"/>
	<path d="M239.5,20.5h10v10h-10z" fill="#000000"/>
	<path d="M239.5,80.5h10v10h-10z" fill="#000000"/>
	<path d="M239.5,50.5h10v10h-10z" fill="#000000"/>
	<path d="M229.5,20.5h10v10h-10z" fill="#000000"/>
	<path d="M239.5,30.5h10v10h-10z" fill="#000000"/>
	<path d="M239.5,70.5h10v10h-10z" fill="#000000"/>
	<path d="M239.5,60.5h10v10h-10z" fill="#000000"/>
	<path d="M239.5,90.5h10v10h-10z" fill="#000000"/>
	<path d="M219.5,90.5h10v10h-10z" fill="#000000"/>
	<path d="M229.5,90.5h10v10h-10z" fill="#000000"/>
	<path d="M209.5,60.5h10v10h-10z" fill="#000000"/>
	<path d="M209.5,70.5h10v10h-10z" fill="#000000"/>
	<path d="M209.5,90.5h10v10h-10z" fill="#000000"/>
	<path d="M209.5,80.5h10v10h-10z" fill="#000000"/>
	<path d="M209.5,50.5h10v10h-10z" fill="#000000"/>
	<path d="M209.5,30.5h10v10h-10z" fill="#000000"/>
	<path d="M209.5,20.5h10v10h-10z" fill="#000000"/>
	<path d="M199.5,50.5h10v10h-10z" fill="#000000"/>
	<path d="M199.5,40.5h10v10h-10z" fill="#000000"/>
	<path d="M199.5,30.5h10v10h-10z" fill="#000000"/>
	<path d="M179.5,50.5h10v10h-10z" fill="#000000"/>
	<path d="M179.5,40.5h10v10h-10z" fill="#000000"/>
	<path d="M179.5,30.5h10v10h-10z" fill="#000000"/>
	<path d="M169.5,60.5h10v10h-10z" fill="#000000"/>
	<path d="M169.5,20.5h10v10h-10z" fill="#000000"/>
	<path d="M159.5,80.5h10v10h-10z" fill="#000000"/>
	<path d="M159.5,70.5h10v10h-10z" fill="#000000"/>
	<path d="M159.5,60.5h10v10h-10z" fill="#000000"/>
	<path d="M159.5,10.5h10v10h-10z" fill="#000000"/>
	<path d="M149.5,90.5h10v10h-10z" fill="#000000"/>
	<path d="M149.5,60.5h10v10h-10z" fill="#000000"/>
	<path d="M149.5,30.5h10v10h-10z" fill="#000000"/>
	<path d="M149.5,0.5h10v10h-10z" fill="#000000"/>
	<path d="M139.5,100.5h10v10h-10z" fill="#000000"/>
	<path d="M139.5,60.5h10v10h-10z" fill="#000000"/>
	<path d="M139.5,50.5h10v10h-10z" fill="#000000"/>
	<path d="M139.5,40.5h10v10h-10z" fill="#000000"/>
	<path d="M139.5,20.5h10v10h-10z" fill="#000000"/>
	<path d="M139.5,0.5h10v10h-10z" fill="#000000"/>
	<path d="M129.5,100.5h10v10h-10z" fill="#000000"/>
	<path d="M129.5,50.5h10v10h-10z" fill="#000000"/>
	<path d="M129.5,10.5h10v10h-10z" fill="#000000"/>
	<path d="M129.5,0.5h10v10h-10z" fill="#000000"/>
	<path d="M119.5,100.5h10v10h-10z" fill="#000000"/>
	<path d="M119.5,50.5h10v10h-10z" fill="#000000"/>
	<path d="M119.5,40.5h10v10h-10z" fill="#000000"/>
	<path d="M119.5,20.5h10v10h-10z" fill="#000000"/>
	<path d="M119.5,0.5h10v10h-10z" fill="#000000"/>
	<path d="M109.5,100.5h10v10h-10z" fill="#000000"/>
	<path d="M109.5,70.5h10v10h-10z" fill="#000000"/>
	<path d="M109.5,60.5h10v10h-10z" fill="#000000"/>
	<path d="M109.5,50.5h10v10h-10z" fill="#000000"/>
	<path d="M109.5,30.5h10v10h-10z" fill="#000000"/>
	<path d="M109.5,0.5h10v10h-10z" fill="#000000"/>
	<path d="M99.5,100.5h10v10h-10z" fill="#000000"/>
	<path d="M99.5,50.5h10v10h-10z" fill="#000000"/>
	<path d="M99.5,0.5h10v10h-10z" fill="#000000"/>
	<path d="M89.5,100.5h10v10h-10z" fill="#000000"/>
	<path d="M89.5,50.5h10v10h-10z" fill="#000000"/>
	<path d="M89.5,0.5h10v10h-10z" fill="#000000"/>
	<path d="M79.5,100.5h10v10h-10z" fill="#000000"/>
	<path d="M79.5,70.5h10v10h-10z" fill="#000000"/>
	<path d="M79.5,60.5h10v10h-10z" fill="#000000"/>
	<path d="M79.5,50.5h10v10h-10z" fill="#000000"/>
	<path d="M79.5,30.5h10v10h-10z" fill="#000000"/>
	<path d="M79.5,0.5h10v10h-10z" fill="#000000"/>
	<path d="M69.5,100.5h10v10h-10z" fill="#000000"/>
	<path d="M69.5,50.5h10v10h-10z" fill="#000000"/>
	<path d="M69.5,40.5h10v10h-10z" fill="#000000"/>
	<path d="M69.5,20.5h10v10h-10z" fill="#000000"/>
	<path d="M69.5,0.5h10v10h-10z" fill="#000000"/>
	<path d="M59.5,100.5h10v10h-10z" fill="#000000"/>
	<path d="M59.5,50.5h10v10h-10z" fill="#000000"/>
	<path d="M59.5,10.5h10v10h-10z" fill="#000000"/>
	<path d="M59.5,0.5h10v10h-10z" fill="#000000"/>
	<path d="M49.5,100.5h10v10h-10z" fill="#000000"/>
	<path d="M49.5,60.5h10v10h-10z" fill="#000000"/>
	<path d="M49.5,50.5h10v10h-10z" fill="#000000"/>
	<path d="M49.5,40.5h10v10h-10z" fill="#000000"/>
	<path d="M49.5,20.5h10v10h-10z" fill="#000000"/>
	<path d="M49.5,0.5h10v10h-10z" fill="#000000"/>
	<path d="M39.5,90.5h10v10h-10z" fill="#000000"/>
	<path d="M39.5,60.5h10v10h-10z" fill="#000000"/>
	<path d="M39.5,30.5h10v10h-10z" fill="#000000"/>
	<path d="M39.5,0.5h10v10h-10z" fill="#000000"/>
	<path d="M29.5,80.5h10v10h-10z" fill="#000000"/>
	<path d="M29.5,70.5h10v10h-10z" fill="#000000"/>
	<path d="M29.5,60.5h10v10h-10z" fill="#000000"/>
	<path d="M29.5,10.5h10v10h-10z" fill="#000000"/>
	<path d="M19.5,60.5h10v10h-10z" fill="#000000"/>
	<path d="M19.5,20.5h10v10h-10z" fill="#000000"/>
	<path d="M9.5,50.5h10v10h-10z" fill="#000000"/>
	<path d="M9.5,40.5h10v10h-10z" fill="#000000"/>
	<path d="M9.5,30.5h10v10h-10z" fill="#000000"/>
</svg>
