<svg xmlns="http://www.w3.org/2000/svg" xmlns:android="http://schemas.android.com/apk/res/android" width="@dimen/clip_width" height="@dimen/clip_height" viewportWidth="440" viewportHeight="110">
	<path fill="#000000" d="M140.5,90.5h10v10h-10z"/>
	<path fill="#000000" d="M150.5,80.5h10v10h-10z"/>
	<path fill="#000000" d="M140.5,50.5h10v10h-10z"/>
	<path fill="#000000" d="M130.5,50.5h10v10h-10z"/>
	<path fill="#000000" d="M140.5,10.5h10v10h-10z"/>
	<path fill="#000000" d="M150.5,20.5h10v10h-10z"/>
	<path fill="#000000" d="M160.5,70.5h10v10h-10z"/>
	<path fill="#000000" d="M150.5,40.5h10v10h-10z"/>
	<path fill="#000000" d="M150.5,50.5h10v10h-10z"/>
	<path fill="#000000" d="M150.5,60.5h10v10h-10z"/>
	<path fill="#000000" d="M160.5,30.5h10v10h-10z"/>
	<path fill="#000000" d="M220.5,90.5h10v10h-10z"/>
	<path fill="#000000" d="M210.5,80.5h10v10h-10z"/>
	<path fill="#000000" d="M220.5,50.5h10v10h-10z"/>
	<path fill="#000000" d="M230.5,50.5h10v10h-10z"/>
	<path fill="#000000" d="M180.5,90.5h10v10h-10z"/>
	<path fill="#000000" d="M180.5,100.5h10v10h-10z"/>
	<path fill="#000000" d="M190.5,80.5h10v10h-10z"/>
	<path fill="#000000" d="M180.5,80.5h10v10h-10z"/>
	<path fill="#000000" d="M170.5,80.5h10v10h-10z"/>
	<path fill="#000000" d="M200.5,70.5h10v10h-10z"/>
	<path fill="#000000" d="M210.5,60.5h10v10h-10z"/>
	<path fill="#000000" d="M210.5,40.5h10v10h-10z"/>
	<path fill="#000000" d="M210.5,50.5h10v10h-10z"/>
	<path fill="#000000" d="M220.5,10.5h10v10h-10z"/>
	<path fill="#000000" d="M210.5,20.5h10v10h-10z"/>
	<path fill="#000000" d="M200.5,30.5h10v10h-10z"/>
	<path fill="#000000" d="M170.5,20.5h10v10h-10z"/>
	<path fill="#000000" d="M180.5,20.5h10v10h-10z"/>
	<path fill="#000000" d="M190.5,20.5h10v10h-10z"/>
	<path fill="#000000" d="M180.5,10.5h10v10h-10z"/>
	<path fill="#000000" d="M180.5,0.5h10v10h-10z"/>
</svg>
