<svg xmlns="http://www.w3.org/2000/svg" xmlns:android="http://schemas.android.com/apk/res/android" width="@dimen/clip_width" height="@dimen/clip_height" viewportWidth="40" viewportHeight="11">
	<path fill="#000000" d="M15,4h1v3h-1z"/>
	<path fill="#000000" d="M16,2h1v2h-1z"/>
	<path fill="#000000" d="M16,7h1v2h-1z"/>
	<path fill="#000000" d="M17,9h2v1h-2z"/>
	<path fill="#000000" d="M17,1h2v1h-2z"/>
	<path fill="#000000" d="M19,0h3v1h-3z"/>
	<path fill="#000000" d="M19,10h3v1h-3z"/>
	<path fill="#000000" d="M22,9h2v1h-2z"/>
	<path fill="#000000" d="M22,1h2v1h-2z"/>
	<path fill="#000000" d="M24,2h1v2h-1z"/>
	<path fill="#000000" d="M24,7h1v2h-1z"/>
	<path fill="#000000" d="M25,4h1v3h-1z"/>
	<path fill="#000000" d="M20,2h1v3h2v1h-3z"/>
</svg>
