<svg xmlns="http://www.w3.org/2000/svg" xmlns:android="http://schemas.android.com/apk/res/android" width="@dimen/clip_width" height="@dimen/clip_height" viewportWidth="400" viewportHeight="110">
	<path fill="#000000" d="M319.5,40.5h10v10h-10z"/>
	<path fill="#000000" d="M319.5,50.5h10v10h-10z"/>
	<path fill="#000000" d="M299.5,90.5h10v10h-10z"/>
	<path fill="#000000" d="M309.5,90.5h10v10h-10z"/>
	<path fill="#000000" d="M319.5,80.5h10v10h-10z"/>
	<path fill="#000000" d="M319.5,90.5h10v10h-10z"/>
	<path fill="#000000" d="M319.5,70.5h10v10h-10z"/>
	<path fill="#000000" d="M329.5,70.5h10v10h-10z"/>
	<path fill="#000000" d="M339.5,70.5h10v10h-10z"/>
	<path fill="#000000" d="M339.5,60.5h10v10h-10z"/>
	<path fill="#000000" d="M349.5,40.5h10v10h-10z"/>
	<path fill="#000000" d="M349.5,60.5h10v10h-10z"/>
	<path fill="#000000" d="M349.5,50.5h10v10h-10z"/>
	<path fill="#000000" d="M339.5,30.5h10v10h-10z"/>
	<path fill="#000000" d="M349.5,30.5h10v10h-10z"/>
	<path fill="#000000" d="M329.5,20.5h10v10h-10z"/>
	<path fill="#000000" d="M319.5,20.5h10v10h-10z"/>
	<path fill="#000000" d="M289.5,30.5h10v10h-10z"/>
	<path fill="#000000" d="M289.5,50.5h10v10h-10z"/>
	<path fill="#000000" d="M289.5,40.5h10v10h-10z"/>
	<path fill="#000000" d="M289.5,70.5h10v10h-10z"/>
	<path fill="#000000" d="M289.5,60.5h10v10h-10z"/>
	<path fill="#000000" d="M289.5,90.5h10v10h-10z"/>
	<path fill="#000000" d="M289.5,80.5h10v10h-10z"/>
	<path fill="#000000" d="M279.5,80.5h10v10h-10z"/>
	<path fill="#000000" d="M249.5,80.5h10v10h-10z"/>
	<path fill="#000000" d="M259.5,90.5h10v10h-10z"/>
	<path fill="#000000" d="M269.5,90.5h10v10h-10z"/>
	<path fill="#000000" d="M279.5,90.5h10v10h-10z"/>
	<path fill="#000000" d="M249.5,90.5h10v10h-10z"/>
	<path fill="#000000" d="M259.5,60.5h10v10h-10z"/>
	<path fill="#000000" d="M259.5,50.5h10v10h-10z"/>
	<path fill="#000000" d="M259.5,30.5h10v10h-10z"/>
	<path fill="#000000" d="M259.5,40.5h10v10h-10z"/>
	<path fill="#000000" d="M249.5,20.5h10v10h-10z"/>
	<path fill="#000000" d="M259.5,20.5h10v10h-10z"/>
	<path fill="#000000" d="M269.5,20.5h10v10h-10z"/>
	<path fill="#000000" d="M289.5,20.5h10v10h-10z"/>
	<path fill="#000000" d="M279.5,20.5h10v10h-10z"/>
	<path fill="#000000" d="M299.5,20.5h10v10h-10z"/>
	<path fill="#000000" d="M309.5,20.5h10v10h-10z"/>
	<path fill="#000000" d="M219.5,20.5h10v10h-10z"/>
	<path fill="#000000" d="M239.5,40.5h10v10h-10z"/>
	<path fill="#000000" d="M239.5,20.5h10v10h-10z"/>
	<path fill="#000000" d="M239.5,80.5h10v10h-10z"/>
	<path fill="#000000" d="M239.5,50.5h10v10h-10z"/>
	<path fill="#000000" d="M229.5,20.5h10v10h-10z"/>
	<path fill="#000000" d="M239.5,30.5h10v10h-10z"/>
	<path fill="#000000" d="M239.5,70.5h10v10h-10z"/>
	<path fill="#000000" d="M239.5,60.5h10v10h-10z"/>
	<path fill="#000000" d="M239.5,90.5h10v10h-10z"/>
	<path fill="#000000" d="M219.5,90.5h10v10h-10z"/>
	<path fill="#000000" d="M229.5,90.5h10v10h-10z"/>
	<path fill="#000000" d="M209.5,60.5h10v10h-10z"/>
	<path fill="#000000" d="M209.5,70.5h10v10h-10z"/>
	<path fill="#000000" d="M209.5,90.5h10v10h-10z"/>
	<path fill="#000000" d="M209.5,80.5h10v10h-10z"/>
	<path fill="#000000" d="M209.5,50.5h10v10h-10z"/>
	<path fill="#000000" d="M209.5,30.5h10v10h-10z"/>
	<path fill="#000000" d="M209.5,20.5h10v10h-10z"/>
	<path fill="#000000" d="M199.5,50.5h10v10h-10z"/>
	<path fill="#000000" d="M199.5,40.5h10v10h-10z"/>
	<path fill="#000000" d="M199.5,30.5h10v10h-10z"/>
</svg>
