<svg xmlns="http://www.w3.org/2000/svg" xmlns:android="http://schemas.android.com/apk/res/android" width="@dimen/clip_width" height="@dimen/clip_height" viewportWidth="400" viewportHeight="110">
	<path fill="#000000" d="M229.5,70.5h10v10h-10z"/>
	<path fill="#000000" d="M229.5,60.5h10v10h-10z"/>
	<path fill="#000000" d="M219.5,60.5h10v10h-10z"/>
	<path fill="#000000" d="M219.5,50.5h10v10h-10z"/>
	<path fill="#000000" d="M219.5,30.5h10v10h-10z"/>
	<path fill="#000000" d="M219.5,20.5h10v10h-10z"/>
	<path fill="#000000" d="M209.5,100.5h10v10h-10z"/>
	<path fill="#000000" d="M209.5,90.5h10v10h-10z"/>
	<path fill="#000000" d="M209.5,50.5h10v10h-10z"/>
	<path fill="#000000" d="M209.5,20.5h10v10h-10z"/>
	<path fill="#000000" d="M209.5,10.5h10v10h-10z"/>
	<path fill="#000000" d="M199.5,90.5h10v10h-10z"/>
	<path fill="#000000" d="M199.5,80.5h10v10h-10z"/>
	<path fill="#000000" d="M199.5,50.5h10v10h-10z"/>
	<path fill="#000000" d="M199.5,10.5h10v10h-10z"/>
	<path fill="#000000" d="M189.5,80.5h10v10h-10z"/>
	<path fill="#000000" d="M189.5,60.5h10v10h-10z"/>
	<path fill="#000000" d="M189.5,10.5h10v10h-10z"/>
	<path fill="#000000" d="M179.5,100.5h10v10h-10z"/>
	<path fill="#000000" d="M179.5,70.5h10v10h-10z"/>
	<path fill="#000000" d="M179.5,60.5h10v10h-10z"/>
	<path fill="#000000" d="M179.5,50.5h10v10h-10z"/>
	<path fill="#000000" d="M179.5,40.5h10v10h-10z"/>
	<path fill="#000000" d="M179.5,10.5h10v10h-10z"/>
	<path fill="#000000" d="M169.5,100.5h10v10h-10z"/>
	<path fill="#000000" d="M169.5,80.5h10v10h-10z"/>
	<path fill="#000000" d="M169.5,70.5h10v10h-10z"/>
	<path fill="#000000" d="M169.5,60.5h10v10h-10z"/>
	<path fill="#000000" d="M169.5,50.5h10v10h-10z"/>
	<path fill="#000000" d="M169.5,40.5h10v10h-10z"/>
	<path fill="#000000" d="M169.5,30.5h10v10h-10z"/>
	<path fill="#000000" d="M169.5,20.5h10v10h-10z"/>
	<path fill="#000000" d="M159.5,90.5h10v10h-10z"/>
	<path fill="#000000" d="M159.5,80.5h10v10h-10z"/>
	<path fill="#000000" d="M159.5,70.5h10v10h-10z"/>
	<path fill="#000000" d="M159.5,60.5h10v10h-10z"/>
	<path fill="#000000" d="M159.5,50.5h10v10h-10z"/>
	<path fill="#000000" d="M159.5,20.5h10v10h-10z"/>
	<path fill="#000000" d="M149.5,100.5h10v10h-10z"/>
	<path fill="#000000" d="M149.5,90.5h10v10h-10z"/>
	<path fill="#000000" d="M149.5,80.5h10v10h-10z"/>
	<path fill="#000000" d="M149.5,70.5h10v10h-10z"/>
	<path fill="#000000" d="M149.5,60.5h10v10h-10z"/>
	<path fill="#000000" d="M149.5,10.5h10v10h-10z"/>
	<path fill="#000000" d="M139.5,100.5h10v10h-10z"/>
	<path fill="#000000" d="M139.5,90.5h10v10h-10z"/>
	<path fill="#000000" d="M139.5,80.5h10v10h-10z"/>
	<path fill="#000000" d="M139.5,70.5h10v10h-10z"/>
	<path fill="#000000" d="M139.5,60.5h10v10h-10z"/>
	<path fill="#000000" d="M139.5,40.5h10v10h-10z"/>
	<path fill="#000000" d="M139.5,10.5h10v10h-10z"/>
	<path fill="#000000" d="M139.5,0.5h10v10h-10z"/>
	<path fill="#000000" d="M129.5,100.5h10v10h-10z"/>
	<path fill="#000000" d="M129.5,90.5h10v10h-10z"/>
	<path fill="#000000" d="M129.5,80.5h10v10h-10z"/>
	<path fill="#000000" d="M129.5,70.5h10v10h-10z"/>
	<path fill="#000000" d="M129.5,60.5h10v10h-10z"/>
	<path fill="#000000" d="M129.5,50.5h10v10h-10z"/>
	<path fill="#000000" d="M129.5,20.5h10v10h-10z"/>
	<path fill="#000000" d="M129.5,10.5h10v10h-10z"/>
	<path fill="#000000" d="M129.5,0.5h10v10h-10z"/>
	<path fill="#000000" d="M119.5,100.5h10v10h-10z"/>
	<path fill="#000000" d="M119.5,90.5h10v10h-10z"/>
	<path fill="#000000" d="M119.5,80.5h10v10h-10z"/>
	<path fill="#000000" d="M119.5,70.5h10v10h-10z"/>
	<path fill="#000000" d="M119.5,60.5h10v10h-10z"/>
	<path fill="#000000" d="M119.5,50.5h10v10h-10z"/>
	<path fill="#000000" d="M119.5,40.5h10v10h-10z"/>
	<path fill="#000000" d="M119.5,30.5h10v10h-10z"/>
	<path fill="#000000" d="M119.5,20.5h10v10h-10z"/>
	<path fill="#000000" d="M119.5,10.5h10v10h-10z"/>
	<path fill="#000000" d="M119.5,0.5h10v10h-10z"/>
	<path fill="#000000" d="M109.5,100.5h10v10h-10z"/>
	<path fill="#000000" d="M109.5,90.5h10v10h-10z"/>
	<path fill="#000000" d="M109.5,80.5h10v10h-10z"/>
	<path fill="#000000" d="M109.5,70.5h10v10h-10z"/>
	<path fill="#000000" d="M109.5,60.5h10v10h-10z"/>
	<path fill="#000000" d="M109.5,50.5h10v10h-10z"/>
	<path fill="#000000" d="M109.5,20.5h10v10h-10z"/>
	<path fill="#000000" d="M109.5,10.5h10v10h-10z"/>
	<path fill="#000000" d="M109.5,0.5h10v10h-10z"/>
	<path fill="#000000" d="M99.5,100.5h10v10h-10z"/>
	<path fill="#000000" d="M99.5,90.5h10v10h-10z"/>
	<path fill="#000000" d="M99.5,80.5h10v10h-10z"/>
	<path fill="#000000" d="M99.5,70.5h10v10h-10z"/>
	<path fill="#000000" d="M99.5,60.5h10v10h-10z"/>
	<path fill="#000000" d="M99.5,40.5h10v10h-10z"/>
	<path fill="#000000" d="M99.5,10.5h10v10h-10z"/>
	<path fill="#000000" d="M99.5,0.5h10v10h-10z"/>
	<path fill="#000000" d="M89.5,100.5h10v10h-10z"/>
	<path fill="#000000" d="M89.5,90.5h10v10h-10z"/>
	<path fill="#000000" d="M89.5,80.5h10v10h-10z"/>
	<path fill="#000000" d="M89.5,70.5h10v10h-10z"/>
	<path fill="#000000" d="M89.5,60.5h10v10h-10z"/>
	<path fill="#000000" d="M89.5,10.5h10v10h-10z"/>
	<path fill="#000000" d="M79.5,90.5h10v10h-10z"/>
	<path fill="#000000" d="M79.5,80.5h10v10h-10z"/>
	<path fill="#000000" d="M79.5,70.5h10v10h-10z"/>
	<path fill="#000000" d="M79.5,60.5h10v10h-10z"/>
	<path fill="#000000" d="M79.5,50.5h10v10h-10z"/>
	<path fill="#000000" d="M79.5,20.5h10v10h-10z"/>
	<path fill="#000000" d="M69.5,100.5h10v10h-10z"/>
	<path fill="#000000" d="M69.5,80.5h10v10h-10z"/>
	<path fill="#000000" d="M69.5,70.5h10v10h-10z"/>
	<path fill="#000000" d="M69.5,60.5h10v10h-10z"/>
	<path fill="#000000" d="M69.5,50.5h10v10h-10z"/>
	<path fill="#000000" d="M69.5,40.5h10v10h-10z"/>
	<path fill="#000000" d="M69.5,30.5h10v10h-10z"/>
	<path fill="#000000" d="M69.5,20.5h10v10h-10z"/>
	<path fill="#000000" d="M59.5,100.5h10v10h-10z"/>
	<path fill="#000000" d="M59.5,70.5h10v10h-10z"/>
	<path fill="#000000" d="M59.5,60.5h10v10h-10z"/>
	<path fill="#000000" d="M59.5,50.5h10v10h-10z"/>
	<path fill="#000000" d="M59.5,40.5h10v10h-10z"/>
	<path fill="#000000" d="M59.5,10.5h10v10h-10z"/>
	<path fill="#000000" d="M49.5,80.5h10v10h-10z"/>
	<path fill="#000000" d="M49.5,60.5h10v10h-10z"/>
	<path fill="#000000" d="M49.5,10.5h10v10h-10z"/>
	<path fill="#000000" d="M39.5,90.5h10v10h-10z"/>
	<path fill="#000000" d="M39.5,80.5h10v10h-10z"/>
	<path fill="#000000" d="M39.5,50.5h10v10h-10z"/>
	<path fill="#000000" d="M39.5,10.5h10v10h-10z"/>
	<path fill="#000000" d="M29.5,100.5h10v10h-10z"/>
	<path fill="#000000" d="M29.5,90.5h10v10h-10z"/>
	<path fill="#000000" d="M29.5,50.5h10v10h-10z"/>
	<path fill="#000000" d="M29.5,20.5h10v10h-10z"/>
	<path fill="#000000" d="M29.5,10.5h10v10h-10z"/>
	<path fill="#000000" d="M19.5,60.5h10v10h-10z"/>
	<path fill="#000000" d="M19.5,50.5h10v10h-10z"/>
	<path fill="#000000" d="M19.5,30.5h10v10h-10z"/>
	<path fill="#000000" d="M19.5,20.5h10v10h-10z"/>
	<path fill="#000000" d="M9.5,70.5h10v10h-10z"/>
	<path fill="#000000" d="M9.5,60.5h10v10h-10z"/>
</svg>
