<?xml version="1.0" encoding="UTF-8" standalone="no"?>
<svg xmlns="http://www.w3.org/2000/svg" xmlns:android="http://schemas.android.com/apk/res/android" height="110" width="400">
    	
    <path d="M319.5,40.5h10v10h-10z" fill="#000000"/>
    	
    <path d="M319.5,50.5h10v10h-10z" fill="#000000"/>
    	
    <path d="M299.5,90.5h10v10h-10z" fill="#000000"/>
    	
    <path d="M309.5,90.5h10v10h-10z" fill="#000000"/>
    	
    <path d="M319.5,80.5h10v10h-10z" fill="#000000"/>
    	
    <path d="M319.5,90.5h10v10h-10z" fill="#000000"/>
    	
    <path d="M319.5,70.5h10v10h-10z" fill="#000000"/>
    	
    <path d="M329.5,70.5h10v10h-10z" fill="#000000"/>
    	
    <path d="M339.5,70.5h10v10h-10z" fill="#000000"/>
    	
    <path d="M339.5,60.5h10v10h-10z" fill="#000000"/>
    	
    <path d="M349.5,40.5h10v10h-10z" fill="#000000"/>
    	
    <path d="M349.5,60.5h10v10h-10z" fill="#000000"/>
    	
    <path d="M349.5,50.5h10v10h-10z" fill="#000000"/>
    	
    <path d="M339.5,30.5h10v10h-10z" fill="#000000"/>
    	
    <path d="M349.5,30.5h10v10h-10z" fill="#000000"/>
    	
    <path d="M329.5,20.5h10v10h-10z" fill="#000000"/>
    	
    <path d="M319.5,20.5h10v10h-10z" fill="#000000"/>
    	
    <path d="M289.5,30.5h10v10h-10z" fill="#000000"/>
    	
    <path d="M289.5,50.5h10v10h-10z" fill="#000000"/>
    	
    <path d="M289.5,40.5h10v10h-10z" fill="#000000"/>
    	
    <path d="M289.5,70.5h10v10h-10z" fill="#000000"/>
    	
    <path d="M289.5,60.5h10v10h-10z" fill="#000000"/>
    	
    <path d="M289.5,90.5h10v10h-10z" fill="#000000"/>
    	
    <path d="M289.5,80.5h10v10h-10z" fill="#000000"/>
    	
    <path d="M279.5,80.5h10v10h-10z" fill="#000000"/>
    	
    <path d="M249.5,80.5h10v10h-10z" fill="#000000"/>
    	
    <path d="M259.5,90.5h10v10h-10z" fill="#000000"/>
    	
    <path d="M269.5,90.5h10v10h-10z" fill="#000000"/>
    	
    <path d="M279.5,90.5h10v10h-10z" fill="#000000"/>
    	
    <path d="M249.5,90.5h10v10h-10z" fill="#000000"/>
    	
    <path d="M259.5,60.5h10v10h-10z" fill="#000000"/>
    	
    <path d="M259.5,50.5h10v10h-10z" fill="#000000"/>
    	
    <path d="M259.5,30.5h10v10h-10z" fill="#000000"/>
    	
    <path d="M259.5,40.5h10v10h-10z" fill="#000000"/>
    	
    <path d="M249.5,20.5h10v10h-10z" fill="#000000"/>
    	
    <path d="M259.5,20.5h10v10h-10z" fill="#000000"/>
    	
    <path d="M269.5,20.5h10v10h-10z" fill="#000000"/>
    	
    <path d="M289.5,20.5h10v10h-10z" fill="#000000"/>
    	
    <path d="M279.5,20.5h10v10h-10z" fill="#000000"/>
    	
    <path d="M299.5,20.5h10v10h-10z" fill="#000000"/>
    	
    <path d="M309.5,20.5h10v10h-10z" fill="#000000"/>
    	
    <path d="M219.5,20.5h10v10h-10z" fill="#000000"/>
    	
    <path d="M239.5,40.5h10v10h-10z" fill="#000000"/>
    	
    <path d="M239.5,20.5h10v10h-10z" fill="#000000"/>
    	
    <path d="M239.5,80.5h10v10h-10z" fill="#000000"/>
    	
    <path d="M239.5,50.5h10v10h-10z" fill="#000000"/>
    	
    <path d="M229.5,20.5h10v10h-10z" fill="#000000"/>
    	
    <path d="M239.5,30.5h10v10h-10z" fill="#000000"/>
    	
    <path d="M239.5,70.5h10v10h-10z" fill="#000000"/>
    	
    <path d="M239.5,60.5h10v10h-10z" fill="#000000"/>
    	
    <path d="M239.5,90.5h10v10h-10z" fill="#000000"/>
    	
    <path d="M219.5,90.5h10v10h-10z" fill="#000000"/>
    	
    <path d="M229.5,90.5h10v10h-10z" fill="#000000"/>
    	
    <path d="M209.5,60.5h10v10h-10z" fill="#000000"/>
    	
    <path d="M209.5,70.5h10v10h-10z" fill="#000000"/>
    	
    <path d="M209.5,90.5h10v10h-10z" fill="#000000"/>
    	
    <path d="M209.5,80.5h10v10h-10z" fill="#000000"/>
    	
    <path d="M209.5,50.5h10v10h-10z" fill="#000000"/>
    	
    <path d="M209.5,30.5h10v10h-10z" fill="#000000"/>
    	
    <path d="M209.5,20.5h10v10h-10z" fill="#000000"/>
    	
    <path d="M199.5,50.5h10v10h-10z" fill="#000000"/>
    	
    <path d="M199.5,40.5h10v10h-10z" fill="#000000"/>
    	
    <path d="M199.5,30.5h10v10h-10z" fill="#000000"/>
    
</svg>
