<?xml version="1.0" encoding="UTF-8" standalone="no"?>
<svg xmlns="http://www.w3.org/2000/svg" xmlns:android="http://schemas.android.com/apk/res/android" height="110" width="400">
    	
    <path d="M179.5,50.5h10v10h-10z" fill="#000000"/>
    	
    <path d="M179.5,40.5h10v10h-10z" fill="#000000"/>
    	
    <path d="M179.5,30.5h10v10h-10z" fill="#000000"/>
    	
    <path d="M169.5,60.5h10v10h-10z" fill="#000000"/>
    	
    <path d="M169.5,20.5h10v10h-10z" fill="#000000"/>
    	
    <path d="M159.5,80.5h10v10h-10z" fill="#000000"/>
    	
    <path d="M159.5,70.5h10v10h-10z" fill="#000000"/>
    	
    <path d="M159.5,60.5h10v10h-10z" fill="#000000"/>
    	
    <path d="M159.5,10.5h10v10h-10z" fill="#000000"/>
    	
    <path d="M149.5,90.5h10v10h-10z" fill="#000000"/>
    	
    <path d="M149.5,60.5h10v10h-10z" fill="#000000"/>
    	
    <path d="M149.5,30.5h10v10h-10z" fill="#000000"/>
    	
    <path d="M149.5,0.5h10v10h-10z" fill="#000000"/>
    	
    <path d="M139.5,100.5h10v10h-10z" fill="#000000"/>
    	
    <path d="M139.5,60.5h10v10h-10z" fill="#000000"/>
    	
    <path d="M139.5,50.5h10v10h-10z" fill="#000000"/>
    	
    <path d="M139.5,40.5h10v10h-10z" fill="#000000"/>
    	
    <path d="M139.5,20.5h10v10h-10z" fill="#000000"/>
    	
    <path d="M139.5,0.5h10v10h-10z" fill="#000000"/>
    	
    <path d="M129.5,100.5h10v10h-10z" fill="#000000"/>
    	
    <path d="M129.5,50.5h10v10h-10z" fill="#000000"/>
    	
    <path d="M129.5,10.5h10v10h-10z" fill="#000000"/>
    	
    <path d="M129.5,0.5h10v10h-10z" fill="#000000"/>
    	
    <path d="M119.5,100.5h10v10h-10z" fill="#000000"/>
    	
    <path d="M119.5,50.5h10v10h-10z" fill="#000000"/>
    	
    <path d="M119.5,40.5h10v10h-10z" fill="#000000"/>
    	
    <path d="M119.5,20.5h10v10h-10z" fill="#000000"/>
    	
    <path d="M119.5,0.5h10v10h-10z" fill="#000000"/>
    	
    <path d="M109.5,100.5h10v10h-10z" fill="#000000"/>
    	
    <path d="M109.5,70.5h10v10h-10z" fill="#000000"/>
    	
    <path d="M109.5,60.5h10v10h-10z" fill="#000000"/>
    	
    <path d="M109.5,50.5h10v10h-10z" fill="#000000"/>
    	
    <path d="M109.5,30.5h10v10h-10z" fill="#000000"/>
    	
    <path d="M109.5,0.5h10v10h-10z" fill="#000000"/>
    	
    <path d="M99.5,100.5h10v10h-10z" fill="#000000"/>
    	
    <path d="M99.5,50.5h10v10h-10z" fill="#000000"/>
    	
    <path d="M99.5,0.5h10v10h-10z" fill="#000000"/>
    	
    <path d="M89.5,100.5h10v10h-10z" fill="#000000"/>
    	
    <path d="M89.5,50.5h10v10h-10z" fill="#000000"/>
    	
    <path d="M89.5,0.5h10v10h-10z" fill="#000000"/>
    	
    <path d="M79.5,100.5h10v10h-10z" fill="#000000"/>
    	
    <path d="M79.5,70.5h10v10h-10z" fill="#000000"/>
    	
    <path d="M79.5,60.5h10v10h-10z" fill="#000000"/>
    	
    <path d="M79.5,50.5h10v10h-10z" fill="#000000"/>
    	
    <path d="M79.5,30.5h10v10h-10z" fill="#000000"/>
    	
    <path d="M79.5,0.5h10v10h-10z" fill="#000000"/>
    	
    <path d="M69.5,100.5h10v10h-10z" fill="#000000"/>
    	
    <path d="M69.5,50.5h10v10h-10z" fill="#000000"/>
    	
    <path d="M69.5,40.5h10v10h-10z" fill="#000000"/>
    	
    <path d="M69.5,20.5h10v10h-10z" fill="#000000"/>
    	
    <path d="M69.5,0.5h10v10h-10z" fill="#000000"/>
    	
    <path d="M59.5,100.5h10v10h-10z" fill="#000000"/>
    	
    <path d="M59.5,50.5h10v10h-10z" fill="#000000"/>
    	
    <path d="M59.5,10.5h10v10h-10z" fill="#000000"/>
    	
    <path d="M59.5,0.5h10v10h-10z" fill="#000000"/>
    	
    <path d="M49.5,100.5h10v10h-10z" fill="#000000"/>
    	
    <path d="M49.5,60.5h10v10h-10z" fill="#000000"/>
    	
    <path d="M49.5,50.5h10v10h-10z" fill="#000000"/>
    	
    <path d="M49.5,40.5h10v10h-10z" fill="#000000"/>
    	
    <path d="M49.5,20.5h10v10h-10z" fill="#000000"/>
    	
    <path d="M49.5,0.5h10v10h-10z" fill="#000000"/>
    	
    <path d="M39.5,90.5h10v10h-10z" fill="#000000"/>
    	
    <path d="M39.5,60.5h10v10h-10z" fill="#000000"/>
    	
    <path d="M39.5,30.5h10v10h-10z" fill="#000000"/>
    	
    <path d="M39.5,0.5h10v10h-10z" fill="#000000"/>
    	
    <path d="M29.5,80.5h10v10h-10z" fill="#000000"/>
    	
    <path d="M29.5,70.5h10v10h-10z" fill="#000000"/>
    	
    <path d="M29.5,60.5h10v10h-10z" fill="#000000"/>
    	
    <path d="M29.5,10.5h10v10h-10z" fill="#000000"/>
    	
    <path d="M19.5,60.5h10v10h-10z" fill="#000000"/>
    	
    <path d="M19.5,20.5h10v10h-10z" fill="#000000"/>
    	
    <path d="M9.5,50.5h10v10h-10z" fill="#000000"/>
    	
    <path d="M9.5,40.5h10v10h-10z" fill="#000000"/>
    	
    <path d="M9.5,30.5h10v10h-10z" fill="#000000"/>
    
</svg>
