<?xml version="1.0" encoding="UTF-8" standalone="no"?>
<svg xmlns="http://www.w3.org/2000/svg" xmlns:android="http://schemas.android.com/apk/res/android" height="11" width="44">
    	
    <path d="M15,4h1v3h-1z" fill="#000000"/>
    	
    <path d="M16,2h1v2h-1z" fill="#000000"/>
    	
    <path d="M16,7h1v2h-1z" fill="#000000"/>
    	
    <path d="M17,9h2v1h-2z" fill="#000000"/>
    	
    <path d="M17,1h2v1h-2z" fill="#000000"/>
    	
    <path d="M19,0h4v1h-4z" fill="#000000"/>
    	
    <path d="M19,10h4v1h-4z" fill="#000000"/>
    	
    <path d="M23,9h2v1h-2z" fill="#000000"/>
    	
    <path d="M23,1h2v1h-2z" fill="#000000"/>
    	
    <path d="M25,2h1v2h-1z" fill="#000000"/>
    	
    <path d="M25,7h1v2h-1z" fill="#000000"/>
    	
    <path d="M26,4h1v3h-1z" fill="#000000"/>
    	
    <path d="M23,4h1v1h-1z" fill="#000000"/>
    	
    <path d="M22,4h1v1h-1z" fill="#000000"/>
    	
    <path d="M18,4h1v1h-1z" fill="#000000"/>
    	
    <path d="M19,4h1v1h-1z" fill="#000000"/>
    	
    <path d="M19,7h1v1h-1z" fill="#000000"/>
    	
    <path d="M22,7h1v1h-1z" fill="#000000"/>
    	
    <path d="M20,8h2v1h-2z" fill="#000000"/>
    
</svg>
