<svg xmlns="http://www.w3.org/2000/svg" xmlns:android="http://schemas.android.com/apk/res/android" width="@dimen/clip_width" height="@dimen/clip_height" viewportWidth="44" viewportHeight="11">
	<path fill="#000000" d="M15,4h1v3h-1z"/>
	<path fill="#000000" d="M16,2h1v2h-1z"/>
	<path fill="#000000" d="M16,7h1v2h-1z"/>
	<path fill="#000000" d="M17,9h2v1h-2z"/>
	<path fill="#000000" d="M17,1h2v1h-2z"/>
	<path fill="#000000" d="M19,0h4v1h-4z"/>
	<path fill="#000000" d="M19,10h4v1h-4z"/>
	<path fill="#000000" d="M23,9h2v1h-2z"/>
	<path fill="#000000" d="M23,1h2v1h-2z"/>
	<path fill="#000000" d="M25,2h1v2h-1z"/>
	<path fill="#000000" d="M25,7h1v2h-1z"/>
	<path fill="#000000" d="M26,4h1v3h-1z"/>
	<path fill="#000000" d="M23,4h1v1h-1z"/>
	<path fill="#000000" d="M22,4h1v1h-1z"/>
	<path fill="#000000" d="M18,4h1v1h-1z"/>
	<path fill="#000000" d="M19,4h1v1h-1z"/>
	<path fill="#000000" d="M19,7h1v1h-1z"/>
	<path fill="#000000" d="M22,7h1v1h-1z"/>
	<path fill="#000000" d="M20,8h2v1h-2z"/>
</svg>
