<?xml version="1.0" encoding="UTF-8" standalone="no"?>
<svg xmlns="http://www.w3.org/2000/svg" xmlns:android="http://schemas.android.com/apk/res/android" height="11" width="40">
    	
    <path d="M15,4h1v3h-1z" fill="#000000"/>
    	
    <path d="M16,2h1v2h-1z" fill="#000000"/>
    	
    <path d="M16,7h1v2h-1z" fill="#000000"/>
    	
    <path d="M17,9h2v1h-2z" fill="#000000"/>
    	
    <path d="M17,1h2v1h-2z" fill="#000000"/>
    	
    <path d="M19,0h3v1h-3z" fill="#000000"/>
    	
    <path d="M19,10h3v1h-3z" fill="#000000"/>
    	
    <path d="M22,9h2v1h-2z" fill="#000000"/>
    	
    <path d="M22,1h2v1h-2z" fill="#000000"/>
    	
    <path d="M24,2h1v2h-1z" fill="#000000"/>
    	
    <path d="M24,7h1v2h-1z" fill="#000000"/>
    	
    <path d="M25,4h1v3h-1z" fill="#000000"/>
    	
    <path d="M20,2h1v3h2v1h-3z" fill="#000000"/>
    
</svg>
