<svg xmlns="http://www.w3.org/2000/svg" xmlns:android="http://schemas.android.com/apk/res/android" width="@dimen/clip_width" height="@dimen/clip_height" viewportWidth="400" viewportHeight="110">
	<path fill="#000000" d="M100.5,90.5h10v10h-10z"/>
	<path fill="#000000" d="M110.5,90.5h10v10h-10z"/>
	<path fill="#000000" d="M130.5,90.5h10v10h-10z"/>
	<path fill="#000000" d="M120.5,90.5h10v10h-10z"/>
	<path fill="#000000" d="M210.5,100.5h10v10h-10z"/>
	<path fill="#000000" d="M200.5,100.5h10v10h-10z"/>
	<path fill="#000000" d="M180.5,100.5h10v10h-10z"/>
	<path fill="#000000" d="M190.5,100.5h10v10h-10z"/>
	<path fill="#000000" d="M140.5,100.5h10v10h-10z"/>
	<path fill="#000000" d="M150.5,100.5h10v10h-10z"/>
	<path fill="#000000" d="M160.5,100.5h10v10h-10z"/>
	<path fill="#000000" d="M170.5,100.5h10v10h-10z"/>
	<path fill="#000000" d="M210.5,80.5h10v10h-10z"/>
	<path fill="#000000" d="M200.5,80.5h10v10h-10z"/>
	<path fill="#000000" d="M190.5,80.5h10v10h-10z"/>
	<path fill="#000000" d="M180.5,80.5h10v10h-10z"/>
	<path fill="#000000" d="M200.5,60.5h10v10h-10z"/>
	<path fill="#000000" d="M210.5,60.5h10v10h-10z"/>
	<path fill="#000000" d="M190.5,60.5h10v10h-10z"/>
	<path fill="#000000" d="M180.5,60.5h10v10h-10z"/>
	<path fill="#000000" d="M210.5,40.5h10v10h-10z"/>
	<path fill="#000000" d="M200.5,40.5h10v10h-10z"/>
	<path fill="#000000" d="M180.5,40.5h10v10h-10z"/>
	<path fill="#000000" d="M190.5,40.5h10v10h-10z"/>
	<path fill="#000000" d="M220.5,60.5h10v10h-10z"/>
	<path fill="#000000" d="M220.5,90.5h10v10h-10z"/>
	<path fill="#000000" d="M220.5,80.5h10v10h-10z"/>
	<path fill="#000000" d="M220.5,30.5h10v10h-10z"/>
	<path fill="#000000" d="M220.5,50.5h10v10h-10z"/>
	<path fill="#000000" d="M220.5,100.5h10v10h-10z"/>
	<path fill="#000000" d="M220.5,70.5h10v10h-10z"/>
	<path fill="#000000" d="M220.5,40.5h10v10h-10z"/>
	<path fill="#000000" d="M220.5,20.5h10v10h-10z"/>
	<path fill="#000000" d="M210.5,20.5h10v10h-10z"/>
	<path fill="#000000" d="M200.5,20.5h10v10h-10z"/>
	<path fill="#000000" d="M190.5,20.5h10v10h-10z"/>
	<path fill="#000000" d="M180.5,20.5h10v10h-10z"/>
	<path fill="#000000" d="M170.5,20.5h10v10h-10z"/>
	<path fill="#000000" d="M160.5,10.5h10v10h-10z"/>
	<path fill="#000000" d="M160.5,20.5h10v10h-10z"/>
	<path fill="#000000" d="M160.5,0.5h10v10h-10z"/>
	<path fill="#000000" d="M100.5,40.5h10v10h-10z"/>
	<path fill="#000000" d="M110.5,40.5h10v10h-10z"/>
	<path fill="#000000" d="M130.5,30.5h10v10h-10z"/>
	<path fill="#000000" d="M120.5,30.5h10v10h-10z"/>
	<path fill="#000000" d="M130.5,20.5h10v10h-10z"/>
	<path fill="#000000" d="M120.5,40.5h10v10h-10z"/>
	<path fill="#000000" d="M140.5,20.5h10v10h-10z"/>
	<path fill="#000000" d="M140.5,10.5h10v10h-10z"/>
	<path fill="#000000" d="M140.5,0.5h10v10h-10z"/>
	<path fill="#000000" d="M150.5,0.5h10v10h-10z"/>
</svg>
