<?xml version="1.0" encoding="UTF-8" standalone="no"?>
<svg xmlns="http://www.w3.org/2000/svg" xmlns:android="http://schemas.android.com/apk/res/android" height="11" width="44">
    	
    <path d="M15,2h1v4h-1z" fill="#000000"/>
    	
    <path d="M25,2h1v4h-1z" fill="#000000"/>
    	
    <path d="M16,1h1v1h-1z" fill="#000000"/>
    	
    <path d="M16,6h1v1h-1z" fill="#000000"/>
    	
    <path d="M24,1h1v1h-1z" fill="#000000"/>
    	
    <path d="M24,6h1v1h-1z" fill="#000000"/>
    	
    <path d="M17,0h2v1h-2z" fill="#000000"/>
    	
    <path d="M17,7h1v1h-1z" fill="#000000"/>
    	
    <path d="M18,8h1v1h-1z" fill="#000000"/>
    	
    <path d="M22,0h2v1h-2z" fill="#000000"/>
    	
    <path d="M23,7h1v1h-1z" fill="#000000"/>
    	
    <path d="M22,8h1v1h-1z" fill="#000000"/>
    	
    <path d="M19,9h1v1h-1z" fill="#000000"/>
    	
    <path d="M21,9h1v1h-1z" fill="#000000"/>
    	
    <path d="M20,10h1v1h-1z" fill="#000000"/>
    	
    <path d="M19,1h1v1h-1z" fill="#000000"/>
    	
    <path d="M21,1h1v1h-1z" fill="#000000"/>
    	
    <path d="M20,2h1v1h-1z" fill="#000000"/>
    
</svg>
