<svg xmlns="http://www.w3.org/2000/svg" xmlns:android="http://schemas.android.com/apk/res/android" width="@dimen/clip_width" height="@dimen/clip_height" viewportWidth="44" viewportHeight="11">
	<path fill="#000000" d="M15,2h1v4h-1z"/>
	<path fill="#000000" d="M25,2h1v4h-1z"/>
	<path fill="#000000" d="M16,1h1v1h-1z"/>
	<path fill="#000000" d="M16,6h1v1h-1z"/>
	<path fill="#000000" d="M24,1h1v1h-1z"/>
	<path fill="#000000" d="M24,6h1v1h-1z"/>
	<path fill="#000000" d="M17,0h2v1h-2z"/>
	<path fill="#000000" d="M17,7h1v1h-1z"/>
	<path fill="#000000" d="M18,8h1v1h-1z"/>
	<path fill="#000000" d="M22,0h2v1h-2z"/>
	<path fill="#000000" d="M23,7h1v1h-1z"/>
	<path fill="#000000" d="M22,8h1v1h-1z"/>
	<path fill="#000000" d="M19,9h1v1h-1z"/>
	<path fill="#000000" d="M21,9h1v1h-1z"/>
	<path fill="#000000" d="M20,10h1v1h-1z"/>
	<path fill="#000000" d="M19,1h1v1h-1z"/>
	<path fill="#000000" d="M21,1h1v1h-1z"/>
	<path fill="#000000" d="M20,2h1v1h-1z"/>
</svg>
