<?xml version="1.0" encoding="UTF-8" standalone="no"?>
<svg xmlns="http://www.w3.org/2000/svg" xmlns:android="http://schemas.android.com/apk/res/android" height="110" width="400">
    	
    <path d="M209.5,20.5h10v10h-10z" fill="#000000"/>
    	
    <path d="M199.5,30.5h10v10h-10z" fill="#000000"/>
    	
    <path d="M159.5,70.5h10v10h-10z" fill="#000000"/>
    	
    <path d="M179.5,70.5h10v10h-10z" fill="#000000"/>
    	
    <path d="M169.5,70.5h10v10h-10z" fill="#000000"/>
    	
    <path d="M199.5,70.5h10v10h-10z" fill="#000000"/>
    	
    <path d="M189.5,70.5h10v10h-10z" fill="#000000"/>
    	
    <path d="M149.5,70.5h10v10h-10z" fill="#000000"/>
    	
    <path d="M149.5,80.5h10v10h-10z" fill="#000000"/>
    	
    <path d="M159.5,90.5h10v10h-10z" fill="#000000"/>
    	
    <path d="M169.5,90.5h10v10h-10z" fill="#000000"/>
    	
    <path d="M189.5,90.5h10v10h-10z" fill="#000000"/>
    	
    <path d="M199.5,90.5h10v10h-10z" fill="#000000"/>
    	
    <path d="M209.5,70.5h10v10h-10z" fill="#000000"/>
    	
    <path d="M209.5,80.5h10v10h-10z" fill="#000000"/>
    	
    <path d="M229.5,80.5h10v10h-10z" fill="#000000"/>
    	
    <path d="M229.5,70.5h10v10h-10z" fill="#000000"/>
    	
    <path d="M229.5,60.5h10v10h-10z" fill="#000000"/>
    	
    <path d="M219.5,50.5h10v10h-10z" fill="#000000"/>
    	
    <path d="M209.5,50.5h10v10h-10z" fill="#000000"/>
    	
    <path d="M209.5,40.5h10v10h-10z" fill="#000000"/>
    	
    <path d="M199.5,40.5h10v10h-10z" fill="#000000"/>
    	
    <path d="M189.5,50.5h10v10h-10z" fill="#000000"/>
    	
    <path d="M189.5,40.5h10v10h-10z" fill="#000000"/>
    	
    <path d="M179.5,50.5h10v10h-10z" fill="#000000"/>
    	
    <path d="M179.5,40.5h10v10h-10z" fill="#000000"/>
    	
    <path d="M169.5,50.5h10v10h-10z" fill="#000000"/>
    	
    <path d="M159.5,60.5h10v10h-10z" fill="#000000"/>
    	
    <path d="M179.5,60.5h10v10h-10z" fill="#000000"/>
    	
    <path d="M169.5,60.5h10v10h-10z" fill="#000000"/>
    	
    <path d="M189.5,60.5h10v10h-10z" fill="#000000"/>
    	
    <path d="M199.5,60.5h10v10h-10z" fill="#000000"/>
    	
    <path d="M209.5,60.5h10v10h-10z" fill="#000000"/>
    	
    <path d="M219.5,60.5h10v10h-10z" fill="#000000"/>
    	
    <path d="M129.5,60.5h10v10h-10z" fill="#000000"/>
    	
    <path d="M129.5,70.5h10v10h-10z" fill="#000000"/>
    	
    <path d="M129.5,80.5h10v10h-10z" fill="#000000"/>
    	
    <path d="M139.5,50.5h10v10h-10z" fill="#000000"/>
    	
    <path d="M149.5,50.5h10v10h-10z" fill="#000000"/>
    	
    <path d="M149.5,60.5h10v10h-10z" fill="#000000"/>
    	
    <path d="M139.5,60.5h10v10h-10z" fill="#000000"/>
    	
    <path d="M149.5,40.5h10v10h-10z" fill="#000000"/>
    	
    <path d="M159.5,40.5h10v10h-10z" fill="#000000"/>
    	
    <path d="M159.5,30.5h10v10h-10z" fill="#000000"/>
    	
    <path d="M169.5,40.5h10v10h-10z" fill="#000000"/>
    	
    <path d="M149.5,20.5h10v10h-10z" fill="#000000"/>
    
</svg>
